<svg xmlns="http://www.w3.org/2000/svg" viewBox="0 0 256 256">
  <defs>
    <linearGradient id="bg" x1="0" y1="0" x2="1" y2="1">
      <stop offset="0" stop-color="#1f2937"/>
      <stop offset="1" stop-color="#111827"/>
    </linearGradient>
    <linearGradient id="folder" x1="0" y1="0" x2="1" y2="1">
      <stop offset="0" stop-color="#8b5cf6"/>
      <stop offset="1" stop-color="#4f46e5"/>
    </linearGradient>
  </defs>
  <rect width="256" height="256" rx="56" fill="url(#bg)"/>
  <path d="M48 82c0-11 9-20 20-20h42c7 0 13 3 17 8l14 16h47c11 0 20 9 20 20v72c0 11-9 20-20 20H68c-11 0-20-9-20-20V82z" fill="url(#folder)"/>
  <path d="M80 112h96c9 0 16 7 16 16v52c0 10-8 18-18 18H66c-10 0-18-8-18-18v-50c0-10 8-18 18-18h14z" fill="#a78bfa" opacity=".35"/>
  <rect x="91" y="120" width="74" height="58" rx="14" fill="#f9fafb"/>
  <path d="M105 120v-17c0-17 10-29 23-29s23 12 23 29v17" fill="none" stroke="#f9fafb" stroke-width="14" stroke-linecap="round"/>
  <circle cx="128" cy="149" r="8" fill="#4f46e5"/>
  <path d="M128 156v13" stroke="#4f46e5" stroke-width="7" stroke-linecap="round"/>
</svg>
